<svg width="29" height="22" viewBox="0 0 29 22" fill="none" xmlns="http://www.w3.org/2000/svg">
<path d="M24.2501 1.25H4.75002C2.95508 1.25 1.5 2.70508 1.5 4.50002V17.5001C1.5 19.295 2.95508 20.7501 4.75002 20.7501H24.2501C26.0451 20.7501 27.5002 19.295 27.5002 17.5001V4.50002C27.5002 2.70508 26.0451 1.25 24.2501 1.25Z" stroke="white" style="stroke:white;stroke-opacity:1;" stroke-width="1.3"/>
<path d="M24.2501 1.25H4.75002C2.95508 1.25 1.5 2.70508 1.5 4.50002V17.5001C1.5 19.295 2.95508 20.7501 4.75002 20.7501H24.2501C26.0451 20.7501 27.5002 19.295 27.5002 17.5001V4.50002C27.5002 2.70508 26.0451 1.25 24.2501 1.25Z" stroke="white" style="stroke:white;stroke-opacity:1;" stroke-width="1.3"/>
<path d="M1.5 6.125L13.0473 11.8987C13.4984 12.1241 13.9958 12.2414 14.5001 12.2414C15.0044 12.2414 15.5017 12.1241 15.9528 11.8987L27.5002 6.125" stroke="white" style="stroke:white;stroke-opacity:1;" stroke-width="1.3"/>
</svg>
