<svg width="17" height="17" viewBox="0 0 17 17" fill="none" xmlns="http://www.w3.org/2000/svg">
<path d="M8.5 14.1666C9.38542 14.1666 10.1381 13.8569 10.7582 13.2373C11.3782 12.6177 11.688 11.865 11.6875 10.9791C11.687 10.0932 11.3772 9.34075 10.7582 8.72167C10.1391 8.10259 9.38636 7.79257 8.5 7.79163C7.61364 7.79069 6.86115 8.1007 6.24254 8.72167C5.62393 9.34264 5.31392 10.0951 5.3125 10.9791C5.31108 11.8631 5.6211 12.6159 6.24254 13.2373C6.86399 13.8587 7.61647 14.1685 8.5 14.1666ZM6.45575 7.67475C6.68242 7.52648 6.92396 7.40724 7.18038 7.31705C7.43726 7.22685 7.70147 7.16074 7.973 7.11871L6.36083 3.92271H4.59L6.45575 7.67475ZM5.11913 13.4123C5.12715 13.3329 5.14557 13.2456 5.17437 13.1502C5.20271 13.0538 5.24426 12.9523 5.29904 12.8456C5.08087 12.4928 4.92362 12.112 4.82729 11.703C4.73096 11.2941 4.70569 10.8731 4.7515 10.4401C4.7515 10.0859 4.81289 9.7497 4.93567 9.43142C5.05797 9.11362 5.22797 8.82768 5.44567 8.57363C5.27708 8.60244 5.12881 8.66288 5.00083 8.75496C4.87286 8.84752 4.78149 8.95778 4.72671 9.08575C4.20018 9.21373 3.78982 9.51005 3.49562 9.97471C3.20143 10.4394 3.11147 10.9541 3.22575 11.5189C3.22575 12.0454 3.40968 12.4926 3.77754 12.8605C4.1454 13.2283 4.5926 13.4127 5.11913 13.4123ZM11.8809 13.4115C12.5222 13.3738 13.0636 13.1225 13.5051 12.6579C13.9461 12.1937 14.1667 11.6341 14.1667 10.9791C14.1667 10.3242 13.9459 9.76457 13.5044 9.30038C13.0628 8.83618 12.5217 8.58473 11.8809 8.546C11.8266 8.546 11.7723 8.54837 11.718 8.55309C11.6632 8.55781 11.6084 8.56466 11.5536 8.57363C11.8181 8.90702 12.0244 9.27818 12.1727 9.68713C12.3215 10.0961 12.3958 10.5267 12.3958 10.9791C12.3958 11.4315 12.3217 11.8622 12.1734 12.2711C12.0247 12.6801 11.8183 13.0512 11.5543 13.3846C11.6086 13.3941 11.6629 13.4009 11.7172 13.4052C11.772 13.4099 11.8266 13.4115 11.8809 13.4115ZM8.5 14.875C8.04619 14.875 7.61742 14.8048 7.21367 14.6646C6.80992 14.5243 6.44324 14.3225 6.11362 14.059C5.98896 14.101 5.85768 14.1293 5.71979 14.144C5.5819 14.1586 5.44024 14.1662 5.29479 14.1666C4.42024 14.1666 3.67342 13.8571 3.05433 13.238C2.43525 12.6189 2.12547 11.8719 2.125 10.9968C2.125 10.1331 2.42651 9.39435 3.02954 8.78046C3.63257 8.16657 4.3631 7.85018 5.22112 7.8313C5.32124 7.8313 5.41663 7.83814 5.50729 7.85184C5.59796 7.86506 5.68863 7.88088 5.77929 7.8993L3.85192 4.03746C3.75181 3.84668 3.75842 3.66181 3.87175 3.48284C3.98461 3.30434 4.14965 3.21509 4.36687 3.21509H6.10583C6.32306 3.21509 6.52044 3.27223 6.698 3.3865C6.87556 3.50078 7.01557 3.65331 7.11804 3.84409L8.5 6.59242L9.88125 3.84409C9.98372 3.65331 10.1237 3.50078 10.3013 3.3865C10.4788 3.27223 10.6762 3.21509 10.8935 3.21509H12.6338C12.8511 3.21509 13.0163 3.30434 13.1297 3.48284C13.2425 3.66228 13.2489 3.84716 13.1488 4.03746L11.2519 7.85042C11.3336 7.832 11.4176 7.81831 11.504 7.80934C11.59 7.79989 11.6785 7.79517 11.7697 7.79517C12.6367 7.81737 13.371 8.13541 13.9726 8.7493C14.5742 9.36318 14.875 10.1065 14.875 10.9791C14.875 11.8655 14.5655 12.6184 13.9464 13.238C13.3273 13.8576 12.5743 14.1671 11.6875 14.1666C11.5449 14.1666 11.4063 14.1591 11.2717 14.144C11.1371 14.1289 11.0073 14.1005 10.8821 14.059C10.553 14.3135 10.187 14.513 9.78421 14.6575C9.3814 14.802 8.95333 14.8745 8.5 14.875ZM8.5 11.7583L7.74137 12.332C7.67951 12.3727 7.62238 12.3734 7.56996 12.3342C7.51754 12.295 7.5029 12.243 7.52604 12.1783L7.80796 11.2334L7.06279 10.6958C7.0014 10.6552 6.98251 10.6032 7.00612 10.54C7.02974 10.4767 7.07507 10.445 7.14213 10.445H8.06862L8.364 9.45763C8.38761 9.39341 8.43294 9.3613 8.5 9.3613C8.56706 9.3613 8.61239 9.39341 8.636 9.45763L8.93138 10.445H9.85787C9.92493 10.445 9.97026 10.4767 9.99388 10.54C10.0175 10.6032 9.9986 10.6552 9.93721 10.6958L9.19204 11.2341L9.47396 12.1776C9.49757 12.2423 9.48317 12.2943 9.43075 12.3335C9.37833 12.3727 9.32096 12.3722 9.25863 12.332L8.5 11.7583ZM10.545 7.67475L12.427 3.92342H10.6392L9.09287 6.98767L9.17079 7.1435C9.41776 7.19073 9.65671 7.25684 9.88762 7.34184C10.1181 7.42684 10.3372 7.53781 10.545 7.67475Z" fill="#DA21AD" fill-opacity="0.61" style="fill:#DA21AD;fill:color(display-p3 0.8549 0.1294 0.6784);fill-opacity:0.61;"/>
</svg>
