<svg width="23" height="20" viewBox="0 0 23 20" fill="none" xmlns="http://www.w3.org/2000/svg">
<path d="M13.002 2.42627C14.8649 0.732448 17.2779 0.458958 19.0996 1.5542C21.0143 2.70626 22.0205 5.17199 21.4326 7.53857V7.53955C20.8747 9.78723 19.5094 11.6024 17.8506 13.397C15.8957 15.5117 13.6309 17.2972 11.2539 19.0278C8.20074 16.7953 5.32529 14.5203 3.12109 11.5796L2.67676 10.9644L2.30469 10.4067C1.47642 9.1021 0.930513 7.76803 0.901367 6.2876C0.858732 4.12555 2.0417 2.18752 3.76465 1.35693L3.93262 1.27979C5.74193 0.498573 8.00088 0.953374 9.6416 2.56104C9.96337 2.87651 10.2943 3.19454 10.6641 3.55322L11.3145 4.18311L11.9404 3.52979C12.2561 3.20052 12.4912 2.93002 12.7422 2.67627L13.002 2.42627Z" fill="#FE0135" stroke="#FE0135" style="fill:#FE0135;fill:color(display-p3 0.9961 0.0039 0.2078);fill-opacity:1;stroke:#FE0135;stroke:color(display-p3 0.9961 0.0039 0.2078);stroke-opacity:1;" stroke-width="1.8"/>
</svg>
