<svg width="9" height="12" viewBox="0 0 9 12" fill="none" xmlns="http://www.w3.org/2000/svg">
<path fill-rule="evenodd" clip-rule="evenodd" d="M4.63894 11.1519C5.28588 10.5384 5.88461 9.87153 6.42938 9.15778C7.57688 7.65098 8.27494 6.16535 8.32219 4.84433C8.34088 4.30745 8.25586 3.77214 8.07218 3.27038C7.8885 2.76862 7.60995 2.31069 7.25315 1.92397C6.89636 1.53724 6.46865 1.22964 5.99556 1.01954C5.52248 0.809448 5.01374 0.701166 4.49972 0.701166C3.9857 0.701166 3.47696 0.809448 3.00387 1.01954C2.53079 1.22964 2.10308 1.53724 1.74628 1.92397C1.38949 2.31069 1.11094 2.76862 0.927259 3.27038C0.743582 3.77214 0.658553 4.30745 0.67725 4.84433C0.725062 6.16535 1.42369 7.65098 2.57062 9.15778C3.11539 9.87153 3.71412 10.5384 4.36106 11.1519C4.42331 11.2107 4.46962 11.2535 4.5 11.2801L4.63894 11.1519ZM4.08488 11.8369C4.08488 11.8369 0 8.24124 0 4.70323C0 3.45586 0.474106 2.25957 1.31802 1.37754C2.16193 0.495518 3.30653 0 4.5 0C5.69347 0 6.83807 0.495518 7.68198 1.37754C8.52589 2.25957 9 3.45586 9 4.70323C9 8.24124 4.91512 11.8369 4.91512 11.8369C4.68787 12.0556 4.31381 12.0532 4.08488 11.8369ZM4.5 6.34936C4.91772 6.34936 5.31832 6.17593 5.61369 5.86722C5.90906 5.55851 6.075 5.13981 6.075 4.70323C6.075 4.26665 5.90906 3.84795 5.61369 3.53924C5.31832 3.23053 4.91772 3.0571 4.5 3.0571C4.08228 3.0571 3.68168 3.23053 3.38631 3.53924C3.09094 3.84795 2.925 4.26665 2.925 4.70323C2.925 5.13981 3.09094 5.55851 3.38631 5.86722C3.68168 6.17593 4.08228 6.34936 4.5 6.34936ZM4.5 7.05485C3.90326 7.05485 3.33097 6.80709 2.90901 6.36607C2.48705 5.92506 2.25 5.32692 2.25 4.70323C2.25 4.07954 2.48705 3.4814 2.90901 3.04039C3.33097 2.59937 3.90326 2.35162 4.5 2.35162C5.09674 2.35162 5.66903 2.59937 6.09099 3.04039C6.51295 3.4814 6.75 4.07954 6.75 4.70323C6.75 5.32692 6.51295 5.92506 6.09099 6.36607C5.66903 6.80709 5.09674 7.05485 4.5 7.05485Z" fill="#C7C1C1" style="fill:#C7C1C1;fill:color(display-p3 0.7788 0.7551 0.7551);fill-opacity:1;"/>
</svg>
