<svg width="30" height="30" viewBox="0 0 30 30" fill="none" xmlns="http://www.w3.org/2000/svg">
<rect x="0.75" y="0.75" width="28.5" height="28.5" rx="14.25" stroke="url(#paint0_linear_6016_707)" style="" stroke-width="1.5"/>
<g clip-path="url(#clip0_6016_707)">
<path d="M13.75 10.625C13.75 10.2935 13.8817 9.97554 14.1161 9.74112C14.3505 9.5067 14.6685 9.375 15 9.375C15.3315 9.375 15.6495 9.5067 15.8839 9.74112C16.1183 9.97554 16.25 10.2935 16.25 10.625C16.9678 10.9644 17.5796 11.4927 18.02 12.1533C18.4604 12.8139 18.7128 13.5819 18.75 14.375V16.25C18.797 16.6386 18.9346 17.0107 19.1518 17.3363C19.3689 17.662 19.6594 17.9321 20 18.125H10C10.3406 17.9321 10.6311 17.662 10.8482 17.3363C11.0654 17.0107 11.203 16.6386 11.25 16.25V14.375C11.2872 13.5819 11.5396 12.8139 11.98 12.1533C12.4204 11.4927 13.0322 10.9644 13.75 10.625" stroke="#999999" style="stroke:#999999;stroke:color(display-p3 0.6000 0.6000 0.6000);stroke-opacity:1;" stroke-width="1.5" stroke-linecap="round" stroke-linejoin="round"/>
<path d="M13.125 18.125V18.75C13.125 19.2473 13.3225 19.7242 13.6742 20.0758C14.0258 20.4275 14.5027 20.625 15 20.625C15.4973 20.625 15.9742 20.4275 16.3258 20.0758C16.6775 19.7242 16.875 19.2473 16.875 18.75V18.125" stroke="#999999" style="stroke:#999999;stroke:color(display-p3 0.6000 0.6000 0.6000);stroke-opacity:1;" stroke-width="1.5" stroke-linecap="round" stroke-linejoin="round"/>
<circle cx="18.75" cy="11.25" r="1.75" fill="url(#paint1_linear_6016_707)" stroke="white" style="stroke:white;stroke-opacity:1;" stroke-width="1.5"/>
</g>
<defs>
<linearGradient id="paint0_linear_6016_707" x1="-1.38691e-10" y1="0.959716" x2="34.4679" y2="23.0187" gradientUnits="userSpaceOnUse">
<stop stop-color="#DA21AD" style="stop-color:#DA21AD;stop-color:color(display-p3 0.8549 0.1294 0.6784);stop-opacity:1;"/>
<stop offset="0.5" stop-color="#816EC9" style="stop-color:#816EC9;stop-color:color(display-p3 0.5059 0.4314 0.7882);stop-opacity:1;"/>
<stop offset="1" stop-color="#37ACE2" style="stop-color:#37ACE2;stop-color:color(display-p3 0.2157 0.6745 0.8863);stop-opacity:1;"/>
</linearGradient>
<linearGradient id="paint1_linear_6016_707" x1="16.25" y1="8.90995" x2="21.9947" y2="12.5864" gradientUnits="userSpaceOnUse">
<stop stop-color="#DA21AD" style="stop-color:#DA21AD;stop-color:color(display-p3 0.8549 0.1294 0.6784);stop-opacity:1;"/>
<stop offset="0.5" stop-color="#816EC9" style="stop-color:#816EC9;stop-color:color(display-p3 0.5059 0.4314 0.7882);stop-opacity:1;"/>
<stop offset="1" stop-color="#37ACE2" style="stop-color:#37ACE2;stop-color:color(display-p3 0.2157 0.6745 0.8863);stop-opacity:1;"/>
</linearGradient>
<clipPath id="clip0_6016_707">
<rect width="15" height="15" fill="white" style="fill:white;fill-opacity:1;" transform="translate(7.5 7.5)"/>
</clipPath>
</defs>
</svg>
