<svg width="29" height="30" viewBox="0 0 29 30" fill="none" xmlns="http://www.w3.org/2000/svg">
<g filter="url(#filter0_d_6002_2479)">
<path d="M14.0969 18.6678L6.88383 11.598C6.40806 11.1398 6.0333 10.5891 5.78316 9.98055C5.53301 9.372 5.4129 8.71879 5.43038 8.06205C5.44786 7.4053 5.60256 6.75925 5.88473 6.16458C6.1669 5.56991 6.57043 5.0395 7.06992 4.60676C7.5694 4.17401 8.15402 3.84829 8.78695 3.65012C9.41988 3.45196 10.0874 3.38563 10.7475 3.45532C11.4076 3.525 12.046 3.72919 12.6225 4.05504C13.1989 4.38088 13.7009 4.82131 14.0969 5.34859C14.4817 4.84724 14.9631 4.42642 15.5134 4.11051C16.0637 3.7946 16.6718 3.58987 17.3026 3.5082C17.9333 3.42652 18.5742 3.46951 19.1881 3.63468C19.8019 3.79985 20.3766 4.08392 20.8787 4.47043C21.3809 4.85693 21.8005 5.3382 22.1134 5.88635C22.4263 6.4345 22.6261 7.03863 22.7014 7.66376C22.7767 8.28889 22.7259 8.92259 22.5519 9.52815C22.378 10.1337 14.4932 18.1753 14.0969 18.6678ZM20.8292 20.5713V14.8607V20.5713ZM23.7144 17.716L20.8292 14.8607L17.9439 17.716" fill="url(#paint0_linear_6002_2479)" style=""/>
<path d="M20.8292 20.5713V14.8607M20.8292 14.8607L23.7144 17.716M20.8292 14.8607L17.9439 17.716M14.0969 18.6678L6.88383 11.598C6.40806 11.1398 6.0333 10.5891 5.78316 9.98055C5.53301 9.372 5.4129 8.71879 5.43038 8.06205C5.44786 7.4053 5.60256 6.75925 5.88473 6.16458C6.1669 5.56991 6.57043 5.0395 7.06992 4.60676C7.5694 4.17401 8.15402 3.84829 8.78695 3.65012C9.41988 3.45196 10.0874 3.38563 10.7475 3.45532C11.4076 3.525 12.046 3.72919 12.6225 4.05504C13.1989 4.38088 13.7009 4.82131 14.0969 5.34859C14.4817 4.84724 14.9631 4.42642 15.5134 4.11051C16.0637 3.7946 16.6718 3.58987 17.3026 3.5082C17.9333 3.42652 18.5742 3.46951 19.1881 3.63468C19.8019 3.79985 20.3766 4.08392 20.8787 4.47043C21.3809 4.85693 21.8005 5.3382 22.1134 5.88635C22.4263 6.4345 22.6261 7.03863 22.7014 7.66376C22.7767 8.28889 22.7259 8.92259 22.5519 9.52815C22.378 10.1337 14.4932 18.1753 14.0969 18.6678Z" stroke="white" style="stroke:white;stroke-opacity:1;" stroke-width="1.2" stroke-linecap="round" stroke-linejoin="round"/>
</g>
<defs>
<filter id="filter0_d_6002_2479" x="0.828613" y="2.82837" width="27.4858" height="26.343" filterUnits="userSpaceOnUse" color-interpolation-filters="sRGB">
<feFlood flood-opacity="0" result="BackgroundImageFix"/>
<feColorMatrix in="SourceAlpha" type="matrix" values="0 0 0 0 0 0 0 0 0 0 0 0 0 0 0 0 0 0 127 0" result="hardAlpha"/>
<feOffset dy="4"/>
<feGaussianBlur stdDeviation="2"/>
<feComposite in2="hardAlpha" operator="out"/>
<feColorMatrix type="matrix" values="0 0 0 0 0 0 0 0 0 0 0 0 0 0 0 0 0 0 0.25 0"/>
<feBlend mode="normal" in2="BackgroundImageFix" result="effect1_dropShadow_6002_2479"/>
<feBlend mode="normal" in="SourceGraphic" in2="effect1_dropShadow_6002_2479" result="shape"/>
</filter>
<linearGradient id="paint0_linear_6002_2479" x1="5.42871" y1="3.97688" x2="25.629" y2="17.7666" gradientUnits="userSpaceOnUse">
<stop stop-color="#DA21AD" style="stop-color:#DA21AD;stop-color:color(display-p3 0.8549 0.1294 0.6784);stop-opacity:1;"/>
<stop offset="0.5" stop-color="#816EC9" style="stop-color:#816EC9;stop-color:color(display-p3 0.5059 0.4314 0.7882);stop-opacity:1;"/>
<stop offset="1" stop-color="#37ACE2" style="stop-color:#37ACE2;stop-color:color(display-p3 0.2157 0.6745 0.8863);stop-opacity:1;"/>
</linearGradient>
</defs>
</svg>
