<svg width="18" height="17" viewBox="0 0 18 17" fill="none" xmlns="http://www.w3.org/2000/svg">
<path d="M8.5847 14.3344L2.27323 8.14831C1.85693 7.74741 1.52902 7.26555 1.31014 6.73307C1.09126 6.20059 0.986164 5.62903 1.00146 5.05438C1.01675 4.47973 1.15211 3.91444 1.39901 3.3941C1.64591 2.87377 1.99901 2.40966 2.43606 2.031C2.8731 1.65235 3.38464 1.36735 3.93846 1.19395C4.49228 1.02055 5.07637 0.962516 5.65397 1.02349C6.23156 1.08447 6.79014 1.26314 7.29453 1.54825C7.79893 1.83336 8.2382 2.21873 8.5847 2.68011C8.92136 2.24143 9.34263 1.87321 9.82411 1.59679C10.3056 1.32036 10.8377 1.14123 11.3896 1.06976C11.9415 0.998296 12.5023 1.03591 13.0394 1.18044C13.5766 1.32496 14.0794 1.57352 14.5188 1.91171C14.9581 2.24991 15.3253 2.67102 15.5991 3.15065C15.8729 3.63028 16.0477 4.1589 16.1136 4.70589C16.1795 5.25287 16.135 5.80736 15.9828 6.33722C15.8306 6.86709 15.5737 7.3618 15.2269 7.7927M14.4754 16V11.0032M14.4754 11.0032L17 13.5016M14.4754 11.0032L11.9508 13.5016" stroke="white" style="stroke:white;stroke-opacity:1;" stroke-width="1.2" stroke-linecap="round" stroke-linejoin="round"/>
</svg>
